<svg width="351" height="76" viewBox="0 0 351 76" fill="none" xmlns="http://www.w3.org/2000/svg">
<g style="mix-blend-mode:color-dodge">
<path d="M19.26 42.56C20.46 42.56 21.46 42.06 22.26 41.06C23.1 40.06 23.78 38.84 24.3 37.4C24.86 35.96 25.26 34.46 25.5 32.9C25.74 31.34 25.86 29.98 25.86 28.82C25.86 27.74 25.68 26.84 25.32 26.12C24.96 25.36 24.18 24.98 22.98 24.98H20.28L16.5 42.56H19.26ZM15.66 46.4L12.96 59H0L8.1 20.9H21.96C24.24 20.9 26.32 21.02 28.2 21.26C30.08 21.5 31.7 21.98 33.06 22.7C34.42 23.42 35.48 24.46 36.24 25.82C37 27.14 37.38 28.92 37.38 31.16C37.38 33.24 37.04 35.22 36.36 37.1C35.72 38.94 34.66 40.56 33.18 41.96C31.74 43.32 29.86 44.4 27.54 45.2C25.22 46 22.4 46.4 19.08 46.4H15.66ZM67.6931 59H53.6531L52.8131 49.46H41.7131L37.4531 59H31.6331L49.3331 20.9H63.5531L67.6931 59ZM43.6931 45.08H52.3931L51.0131 28.76L43.6931 45.08ZM93.7181 31.94C93.8381 31.34 93.8981 30.52 93.8981 29.48C93.8981 28.88 93.8581 28.3 93.7781 27.74C93.6981 27.14 93.5581 26.62 93.3581 26.18C93.1581 25.7 92.8581 25.34 92.4581 25.1C92.0581 24.82 91.5381 24.68 90.8981 24.68C90.1781 24.68 89.5181 24.84 88.9181 25.16C88.3181 25.48 87.7781 25.9 87.2981 26.42C86.8581 26.9 86.4981 27.48 86.2181 28.16C85.9781 28.8 85.8581 29.48 85.8581 30.2C85.8581 31.24 86.1181 32.04 86.6381 32.6C87.1981 33.16 87.9181 33.62 88.7981 33.98C89.6781 34.34 90.6781 34.64 91.7981 34.88C92.9181 35.12 94.0781 35.4 95.2781 35.72C96.2781 36 97.2781 36.36 98.2781 36.8C99.2781 37.24 100.158 37.84 100.918 38.6C101.718 39.32 102.358 40.28 102.838 41.48C103.318 42.64 103.558 44.1 103.558 45.86C103.558 48.38 103.058 50.5 102.058 52.22C101.058 53.94 99.6781 55.34 97.9181 56.42C96.1581 57.5 94.0581 58.28 91.6181 58.76C89.2181 59.24 86.5981 59.48 83.7581 59.48C80.8781 59.48 78.5181 59.3 76.6781 58.94C74.8781 58.54 73.4581 58.12 72.4181 57.68C71.1781 57.16 70.2581 56.56 69.6581 55.88L71.6981 47.66H82.2581C82.2181 48.02 82.1781 48.52 82.1381 49.16C82.0981 49.76 82.0781 50.24 82.0781 50.6C82.0781 51.08 82.1381 51.58 82.2581 52.1C82.3781 52.62 82.5581 53.1 82.7981 53.54C83.0781 53.98 83.4581 54.34 83.9381 54.62C84.4181 54.9 85.0181 55.04 85.7381 55.04C86.5381 55.04 87.2381 54.86 87.8381 54.5C88.4781 54.14 88.9981 53.7 89.3981 53.18C89.8381 52.62 90.1581 52.02 90.3581 51.38C90.5981 50.7 90.7181 50.04 90.7181 49.4C90.7181 48.52 90.4981 47.78 90.0581 47.18C89.6581 46.58 89.0981 46.08 88.3781 45.68C87.6581 45.24 86.8181 44.88 85.8581 44.6C84.9381 44.28 83.9781 43.96 82.9781 43.64C82.0181 43.36 80.9981 43.02 79.9181 42.62C78.8781 42.22 77.9181 41.66 77.0381 40.94C76.1581 40.22 75.4181 39.32 74.8181 38.24C74.2581 37.12 73.9781 35.7 73.9781 33.98C73.9781 31.42 74.6181 29.28 75.8981 27.56C77.2181 25.8 78.8581 24.38 80.8181 23.3C82.8181 22.22 84.9981 21.46 87.3581 21.02C89.7181 20.54 91.9581 20.3 94.0781 20.3C96.8781 20.3 99.2781 20.64 101.278 21.32C103.318 21.96 104.858 22.72 105.898 23.6L103.678 31.94H93.7181ZM141.247 25.46H131.587L124.447 59H111.487L118.627 25.46H109.087L110.167 20.9H142.267L141.247 25.46ZM156.108 20.9H181.368L180.408 25.46H168.168L165.648 37.04H175.908L174.948 41.54H164.688L161.928 54.38H174.168L173.268 59H148.008L156.108 20.9ZM183.104 20.9H196.784L198.824 46.7L211.304 20.9H217.244L199.484 59H185.324L183.104 20.9ZM221.147 20.9H246.407L245.447 25.46H233.207L230.687 37.04H240.947L239.987 41.54H229.727L226.967 54.38H239.207L238.307 59H213.047L221.147 20.9ZM275.203 59H261.163L254.503 31.46L248.623 59H243.223L251.323 20.9H265.663L271.963 48.8L277.903 20.9H283.423L275.203 59ZM318.376 25.46H308.716L301.576 59H288.616L295.756 25.46H286.216L287.296 20.9H319.396L318.376 25.46ZM338.464 31.94C338.584 31.34 338.644 30.52 338.644 29.48C338.644 28.88 338.604 28.3 338.524 27.74C338.444 27.14 338.304 26.62 338.104 26.18C337.904 25.7 337.604 25.34 337.204 25.1C336.804 24.82 336.284 24.68 335.644 24.68C334.924 24.68 334.264 24.84 333.664 25.16C333.064 25.48 332.524 25.9 332.044 26.42C331.604 26.9 331.244 27.48 330.964 28.16C330.724 28.8 330.604 29.48 330.604 30.2C330.604 31.24 330.864 32.04 331.384 32.6C331.944 33.16 332.664 33.62 333.544 33.98C334.424 34.34 335.424 34.64 336.544 34.88C337.664 35.12 338.824 35.4 340.024 35.72C341.024 36 342.024 36.36 343.024 36.8C344.024 37.24 344.904 37.84 345.664 38.6C346.464 39.32 347.104 40.28 347.584 41.48C348.064 42.64 348.304 44.1 348.304 45.86C348.304 48.38 347.804 50.5 346.804 52.22C345.804 53.94 344.424 55.34 342.664 56.42C340.904 57.5 338.804 58.28 336.364 58.76C333.964 59.24 331.344 59.48 328.504 59.48C325.624 59.48 323.264 59.3 321.424 58.94C319.624 58.54 318.204 58.12 317.164 57.68C315.924 57.16 315.004 56.56 314.404 55.88L316.444 47.66H327.004C326.964 48.02 326.924 48.52 326.884 49.16C326.844 49.76 326.824 50.24 326.824 50.6C326.824 51.08 326.884 51.58 327.004 52.1C327.124 52.62 327.304 53.1 327.544 53.54C327.824 53.98 328.204 54.34 328.684 54.62C329.164 54.9 329.764 55.04 330.484 55.04C331.284 55.04 331.984 54.86 332.584 54.5C333.224 54.14 333.744 53.7 334.144 53.18C334.584 52.62 334.904 52.02 335.104 51.38C335.344 50.7 335.464 50.04 335.464 49.4C335.464 48.52 335.244 47.78 334.804 47.18C334.404 46.58 333.844 46.08 333.124 45.68C332.404 45.24 331.564 44.88 330.604 44.6C329.684 44.28 328.724 43.96 327.724 43.64C326.764 43.36 325.744 43.02 324.664 42.62C323.624 42.22 322.664 41.66 321.784 40.94C320.904 40.22 320.164 39.32 319.564 38.24C319.004 37.12 318.724 35.7 318.724 33.98C318.724 31.42 319.364 29.28 320.644 27.56C321.964 25.8 323.604 24.38 325.564 23.3C327.564 22.22 329.744 21.46 332.104 21.02C334.464 20.54 336.704 20.3 338.824 20.3C341.624 20.3 344.024 20.64 346.024 21.32C348.064 21.96 349.604 22.72 350.644 23.6L348.424 31.94H338.464Z" fill="url(#paint0_linear_119_1075)"/>
</g>
<defs>
<linearGradient id="paint0_linear_119_1075" x1="-1.13742e-07" y1="38" x2="630.455" y2="50.493" gradientUnits="userSpaceOnUse">
<stop stop-color="white"/>
<stop offset="0.9999" stop-color="#E0E0E0"/>
<stop offset="1" stop-color="#CFCFCF"/>
</linearGradient>
</defs>
</svg>
