<svg width="1323" height="372" viewBox="0 0 1323 372" fill="none" xmlns="http://www.w3.org/2000/svg">
<g style="mix-blend-mode:color-dodge">
<path d="M222.016 271.714C217.474 274.07 212.732 276.426 207.79 278.782C203.01 280.942 197.791 282.905 192.135 284.672C186.44 286.242 180.088 287.519 173.079 288.5C166.27 289.482 158.665 289.973 150.265 289.973C123.465 289.973 101.62 284.083 84.7304 272.303C68.0407 260.524 57.0245 240.891 51.6819 213.406C48.5908 197.503 48.1905 182.583 50.481 168.644C52.7333 154.508 57.7482 142.238 65.5256 131.833C73.2649 121.231 83.743 112.887 96.96 106.801C110.177 100.715 126.085 97.6719 144.686 97.6719C153.486 97.6719 161.6 98.2609 169.029 99.4388C176.658 100.617 183.563 102.187 189.745 104.151C196.088 105.918 201.77 107.881 206.79 110.04C212.009 112.2 216.71 114.261 220.892 116.225L220.739 170.999H166.739C166.557 169.036 166.261 166.484 165.851 163.343C165.64 160.202 165.329 157.06 164.919 153.919C164.47 150.582 164.04 147.342 163.63 144.201C163.219 141.06 162.804 138.409 162.384 136.25C162.079 134.679 161.636 132.912 161.054 130.949C160.434 128.789 159.533 126.728 158.352 124.765C157.17 122.802 155.565 121.231 153.536 120.053C151.669 118.679 149.335 117.992 146.535 117.992C141.335 117.992 136.955 120.151 133.395 124.47C129.996 128.593 127.284 134.188 125.257 141.256C123.193 148.128 121.72 155.981 120.837 164.815C119.954 173.65 119.51 182.681 119.503 191.908C119.659 200.939 120.095 209.872 120.812 218.707C121.73 227.541 122.837 235.296 124.134 241.971C124.516 243.934 125.093 246.388 125.865 249.333C126.638 252.278 127.791 255.125 129.326 257.873C130.86 260.622 132.818 262.978 135.199 264.941C137.781 266.904 140.872 267.886 144.472 267.886C150.672 267.886 155.947 264.156 160.297 256.696C164.608 249.039 167.075 235.492 167.697 216.056H223.197L222.016 271.714Z" fill="url(#paint0_linear_111_787)"/>
</g>
<g style="mix-blend-mode:color-dodge">
<path d="M298.919 142.63C310.386 142.63 319.932 144.07 327.559 146.949C335.318 149.829 341.85 154.279 347.154 160.299C350.609 164.357 353.566 168.938 356.025 174.042C358.484 179.147 360.362 185.036 361.66 191.712C362.779 197.47 363.365 203.229 363.418 208.988C363.471 214.747 363.019 220.31 362.062 225.676C361.213 230.911 359.846 235.885 357.962 240.597C356.186 245.177 353.974 249.235 351.328 252.769C346.359 259.444 340.008 264.156 332.276 266.904C324.651 269.522 314.839 270.831 302.839 270.831C291.239 270.831 281.677 269.653 274.152 267.297C266.627 264.941 260.29 261.145 255.139 255.91C251.493 252.245 248.256 247.599 245.429 241.971C242.735 236.343 240.561 229.275 238.908 220.768C236.084 206.24 236.165 193.282 239.152 181.895C242.246 170.377 248.011 161.281 256.447 154.606C261.525 150.549 267.473 147.538 274.292 145.575C281.11 143.612 289.319 142.63 298.919 142.63ZM298.568 257.088C301.634 257.088 304.246 255.779 306.404 253.161C308.67 250.413 310.504 246.814 311.905 242.363C313.415 237.783 314.543 232.613 315.291 226.854C316.171 221.095 316.68 215.14 316.818 208.988C316.955 202.837 316.772 196.751 316.269 190.73C315.873 184.578 315.192 179.016 314.225 174.042C312.902 167.236 311.266 162.59 309.316 160.103C307.473 157.485 305.219 156.177 302.552 156.177C299.486 156.177 296.807 157.485 294.516 160.103C292.224 162.721 290.245 166.255 288.576 170.705C287.016 175.024 285.795 180.063 284.915 185.822C284.142 191.45 283.608 197.274 283.311 203.295C283.148 209.315 283.239 215.271 283.584 221.16C284.062 227.05 284.785 232.482 285.751 237.455C287.201 244.916 289.006 250.086 291.166 252.965C293.434 255.714 295.901 257.088 298.568 257.088ZM484.848 269.26H438.048L398.331 179.147L396.248 269.26H378.248L381.015 144.593H428.815L467.56 235.885L469.615 144.593H488.015L484.848 269.26ZM607.426 159.514H575.226L572.759 269.26H529.559L532.026 159.514H500.226L500.926 144.593H607.926L607.426 159.514ZM719.321 269.26H672.521L663.653 238.044H626.653L618.521 269.26H599.121L633.888 144.593H681.288L719.321 269.26ZM630.468 223.713H659.468L644.488 170.312L630.468 223.713ZM834.885 258.658C831.857 260.229 828.696 261.8 825.401 263.37C822.214 264.81 818.735 266.119 814.964 267.297C811.168 268.344 806.933 269.195 802.261 269.849C797.721 270.503 792.651 270.831 787.051 270.831C769.185 270.831 754.621 266.904 743.362 259.051C732.235 251.198 724.891 238.11 721.329 219.786C719.269 209.184 719.002 199.237 720.529 189.945C722.03 180.521 725.374 172.341 730.558 165.404C735.718 158.336 742.703 152.774 751.515 148.716C760.326 144.659 770.932 142.63 783.332 142.63C789.198 142.63 794.608 143.023 799.561 143.808C804.647 144.593 809.25 145.64 813.371 146.949C817.6 148.127 821.388 149.436 824.734 150.876C828.214 152.316 831.348 153.69 834.136 154.999L834.034 191.515H798.034C797.913 190.206 797.715 188.505 797.442 186.411C797.301 184.317 797.094 182.222 796.821 180.128C796.521 177.903 796.235 175.744 795.961 173.65C795.688 171.555 795.411 169.789 795.131 168.349C794.927 167.302 794.632 166.124 794.244 164.815C793.831 163.375 793.23 162.001 792.443 160.692C791.655 159.383 790.585 158.336 789.232 157.551C787.987 156.635 786.432 156.177 784.565 156.177C781.098 156.177 778.178 157.616 775.804 160.496C773.539 163.244 771.73 166.975 770.38 171.686C769.003 176.267 768.021 181.503 767.433 187.392C766.844 193.282 766.548 199.303 766.543 205.454C766.647 211.475 766.938 217.43 767.416 223.32C768.028 229.21 768.766 234.38 769.631 238.83C769.885 240.138 770.27 241.775 770.785 243.738C771.3 245.701 772.069 247.599 773.092 249.431C774.115 251.264 775.42 252.834 777.008 254.143C778.729 255.452 780.789 256.106 783.189 256.106C787.323 256.106 790.839 253.619 793.739 248.646C796.614 243.541 798.258 234.51 798.673 221.553H835.673L834.885 258.658ZM952.348 159.514H920.148L917.68 269.26H874.48L876.948 159.514H845.148L845.848 144.593H952.848L952.348 159.514ZM1040.95 224.694C1040.85 227.574 1040.8 230.06 1040.8 232.155C1040.81 234.249 1040.99 236.212 1041.35 238.044C1042.24 242.625 1044.55 246.29 1048.29 249.039C1052.15 251.787 1057.29 253.161 1063.69 253.161C1068.35 253.161 1072 252.376 1074.63 250.805C1077.39 249.235 1079.45 247.141 1080.81 244.523C1082.3 241.905 1083.25 238.895 1083.65 235.492C1084.19 232.089 1084.49 228.49 1084.55 224.694L1085.98 144.593H1104.18L1102.43 225.087C1102.32 231.369 1101.53 237.259 1100.06 242.756C1098.6 248.253 1095.87 253.096 1091.89 257.284C1088.04 261.472 1082.62 264.81 1075.63 267.297C1068.63 269.653 1059.59 270.831 1048.52 270.831C1033.19 270.831 1021.38 268.409 1013.11 263.567C1004.81 258.593 999.667 251.002 997.683 240.793C996.792 236.212 996.26 230.388 996.086 223.32C995.913 216.252 995.958 208.596 996.222 200.35L997.584 144.593H1042.98L1040.95 224.694Z" fill="url(#paint1_linear_111_787)"/>
</g>
<g style="mix-blend-mode:color-dodge">
<path d="M1221.5 154.803C1221.53 151.858 1221.05 147.833 1220.05 142.729C1219.48 139.784 1218.73 136.937 1217.79 134.188C1216.82 131.244 1215.62 128.691 1214.2 126.532C1212.75 124.176 1210.9 122.409 1208.67 121.231C1206.41 119.857 1203.67 119.17 1200.47 119.17C1196.87 119.17 1193.73 119.955 1191.03 121.525C1188.34 123.096 1186.04 125.157 1184.13 127.71C1182.39 130.066 1181.15 132.912 1180.39 136.25C1179.8 139.391 1179.85 142.729 1180.54 146.262C1181.53 151.367 1183.6 155.293 1186.73 158.042C1190.06 160.791 1194.1 163.048 1198.85 164.815C1203.59 166.582 1208.88 168.055 1214.71 169.233C1220.53 170.41 1226.6 171.785 1232.91 173.355C1238.17 174.73 1243.52 176.497 1248.94 178.656C1254.36 180.816 1259.33 183.761 1263.85 187.491C1268.54 191.025 1272.66 195.736 1276.2 201.626C1279.71 207.32 1282.3 214.486 1283.98 223.124C1286.38 235.492 1285.91 245.898 1282.55 254.34C1279.19 262.782 1273.62 269.653 1265.86 274.954C1258.09 280.255 1248.33 284.083 1236.59 286.439C1225.05 288.795 1212.17 289.973 1197.97 289.973C1183.57 289.973 1171.6 289.089 1162.06 287.322C1152.68 285.359 1145.18 283.298 1139.56 281.138C1132.86 278.586 1127.69 275.641 1124.04 272.303L1126.4 231.958H1179.2C1179.34 233.725 1179.62 236.179 1180.03 239.321C1180.4 242.266 1180.76 244.621 1181.1 246.388C1181.56 248.744 1182.34 251.198 1183.43 253.751C1184.53 256.303 1185.89 258.659 1187.51 260.818C1189.33 262.978 1191.57 264.745 1194.24 266.119C1196.91 267.493 1200.04 268.181 1203.64 268.181C1207.64 268.181 1210.97 267.297 1213.62 265.53C1216.48 263.763 1218.66 261.604 1220.16 259.051C1221.83 256.303 1222.86 253.358 1223.25 250.217C1223.8 246.879 1223.77 243.64 1223.16 240.499C1222.32 236.179 1220.51 232.547 1217.74 229.603C1215.17 226.658 1211.89 224.204 1207.91 222.24C1203.89 220.081 1199.35 218.314 1194.28 216.94C1189.37 215.369 1184.27 213.798 1178.96 212.228C1173.9 210.854 1168.47 209.185 1162.69 207.221C1157.11 205.258 1151.77 202.51 1146.69 198.976C1141.6 195.442 1137.04 191.025 1133.01 185.724C1129.14 180.227 1126.39 173.257 1124.75 164.815C1122.3 152.25 1123.46 141.747 1128.22 133.305C1133.14 124.667 1139.99 117.697 1148.76 112.396C1157.73 107.096 1167.9 103.365 1179.28 101.206C1190.62 98.8498 1201.6 97.6719 1212.2 97.6719C1226.2 97.6719 1238.52 99.3407 1249.17 102.678C1259.98 105.819 1268.4 109.55 1274.44 113.869L1271.3 154.803H1221.5Z" fill="url(#paint2_linear_111_787)"/>
</g>
<defs>
<linearGradient id="paint0_linear_111_787" x1="36.0629" y1="185.528" x2="392.094" y2="116.688" gradientUnits="userSpaceOnUse">
<stop stop-color="white"/>
<stop offset="0.335229" stop-color="#E0E0E0"/>
<stop offset="1" stop-color="#CFCFCF"/>
</linearGradient>
<linearGradient id="paint1_linear_111_787" x1="228.168" y1="201.528" x2="1865.46" y2="-105.149" gradientUnits="userSpaceOnUse">
<stop stop-color="white"/>
<stop offset="0.335229" stop-color="#E0E0E0"/>
<stop offset="1" stop-color="#CFCFCF"/>
</linearGradient>
<linearGradient id="paint2_linear_111_787" x1="1109.27" y1="185.528" x2="1437.48" y2="122.042" gradientUnits="userSpaceOnUse">
<stop stop-color="white"/>
<stop offset="0.335229" stop-color="#E0E0E0"/>
<stop offset="1" stop-color="#CFCFCF"/>
</linearGradient>
</defs>
</svg>
