<svg width="1707" height="701" viewBox="0 0 1707 701" fill="none" xmlns="http://www.w3.org/2000/svg">
<g style="mix-blend-mode:color-dodge">
<path d="M473.9 462C473.9 467.8 473 473 471.2 477.6C469.6 482.2 467.3 486.3 464.3 489.9C461.3 493.5 457.8 496.7 453.8 499.5C449.8 502.3 445.4 504.9 440.6 507.3C442.8 508.1 445.4 509.4 448.4 511.2C451.4 512.8 454.3 515.1 457.1 518.1C459.9 521.1 462.2 525 464 529.8C466 534.4 467 540.1 467 546.9C467 555.9 465.1 564.2 461.3 571.8C457.5 579.4 451.8 586 444.2 591.6C436.8 597 427.6 601.3 416.6 604.5C405.8 607.5 393.3 609 379.1 609H290L330.5 418.5H409.4C417.2 418.5 424.9 419.1 432.5 420.3C440.3 421.3 447.2 423.4 453.2 426.6C459.4 429.8 464.4 434.3 468.2 440.1C472 445.7 473.9 453 473.9 462ZM392.3 498.3C396.7 498.3 400.4 497 403.4 494.4C406.6 491.8 409.2 488.6 411.2 484.8C413.2 480.8 414.7 476.6 415.7 472.2C416.7 467.6 417.2 463.5 417.2 459.9C417.2 454.1 415.8 449.2 413 445.2C410.4 441 406.2 438.9 400.4 438.9H391.4L378.5 498.3H392.3ZM370.7 590.1C376.7 590.1 381.7 588.4 385.7 585C389.7 581.6 393 577.4 395.6 572.4C398.2 567.4 400 562.2 401 556.8C402.2 551.2 402.8 546.3 402.8 542.1C402.8 535.1 401.3 529.6 398.3 525.6C395.5 521.4 390.9 519.3 384.5 519.3H373.4L358.7 590.1H370.7ZM517.121 418.5H643.421L638.621 441.3H577.421L564.821 499.2H616.121L611.321 521.7H560.021L546.221 585.9H607.421L602.921 609H476.621L517.121 418.5ZM730.484 522H808.184L790.784 609H755.384L749.684 589.8H748.484C743.284 595.8 737.084 600.9 729.884 605.1C722.884 609.3 713.684 611.4 702.284 611.4C693.484 611.4 684.984 610 676.784 607.2C668.784 604.2 661.584 599.6 655.184 593.4C648.984 587 643.984 578.7 640.184 568.5C636.384 558.3 634.484 546 634.484 531.6C634.484 516 636.884 501.2 641.684 487.2C646.484 473.2 653.684 460.9 663.284 450.3C672.884 439.5 684.884 431 699.284 424.8C713.684 418.6 730.484 415.5 749.684 415.5C764.484 415.5 777.384 417.2 788.384 420.6C799.384 424 809.784 427.8 819.584 432L808.184 490.2H757.484C757.684 488 757.984 485.4 758.384 482.4C758.784 479.4 759.084 476.3 759.284 473.1C759.484 469.7 759.684 466.4 759.884 463.2C760.084 460 760.184 457.2 760.184 454.8C760.184 453.2 760.084 451.4 759.884 449.4C759.684 447.2 759.184 445.1 758.384 443.1C757.584 441.1 756.384 439.5 754.784 438.3C753.184 436.9 750.884 436.2 747.884 436.2C742.684 436.2 737.884 438.4 733.484 442.8C729.284 447 725.484 452.7 722.084 459.9C718.684 466.9 715.684 474.9 713.084 483.9C710.684 492.9 708.584 502.1 706.784 511.5C705.184 520.7 703.884 529.8 702.884 538.8C702.084 547.6 701.684 555.3 701.684 561.9C701.684 563.9 701.784 566.4 701.984 569.4C702.184 572.4 702.784 575.4 703.784 578.4C704.984 581.2 706.584 583.7 708.584 585.9C710.784 587.9 713.884 588.9 717.884 588.9C724.484 588.9 730.884 585.3 737.084 578.1C743.284 570.9 747.984 558.9 751.184 542.1H725.984L730.484 522ZM881.265 609H816.465L856.965 418.5H922.065L881.265 609ZM1074.22 609H1004.02L970.716 471.3L941.316 609H914.316L954.816 418.5H1026.52L1058.02 558L1087.72 418.5H1115.32L1074.22 609ZM1225.58 473.7C1226.18 470.7 1226.48 466.6 1226.48 461.4C1226.48 458.4 1226.28 455.5 1225.88 452.7C1225.48 449.7 1224.78 447.1 1223.78 444.9C1222.78 442.5 1221.28 440.7 1219.28 439.5C1217.28 438.1 1214.68 437.4 1211.48 437.4C1207.88 437.4 1204.58 438.2 1201.58 439.8C1198.58 441.4 1195.88 443.5 1193.48 446.1C1191.28 448.5 1189.48 451.4 1188.08 454.8C1186.88 458 1186.28 461.4 1186.28 465C1186.28 470.2 1187.58 474.2 1190.18 477C1192.98 479.8 1196.58 482.1 1200.98 483.9C1205.38 485.7 1210.38 487.2 1215.98 488.4C1221.58 489.6 1227.38 491 1233.38 492.6C1238.38 494 1243.38 495.8 1248.38 498C1253.38 500.2 1257.78 503.2 1261.58 507C1265.58 510.6 1268.78 515.4 1271.18 521.4C1273.58 527.2 1274.78 534.5 1274.78 543.3C1274.78 555.9 1272.28 566.5 1267.28 575.1C1262.28 583.7 1255.38 590.7 1246.58 596.1C1237.78 601.5 1227.28 605.4 1215.08 607.8C1203.08 610.2 1189.98 611.4 1175.78 611.4C1161.38 611.4 1149.58 610.5 1140.38 608.7C1131.38 606.7 1124.28 604.6 1119.08 602.4C1112.88 599.8 1108.28 596.8 1105.28 593.4L1115.48 552.3H1168.28C1168.08 554.1 1167.88 556.6 1167.68 559.8C1167.48 562.8 1167.38 565.2 1167.38 567C1167.38 569.4 1167.68 571.9 1168.28 574.5C1168.88 577.1 1169.78 579.5 1170.98 581.7C1172.38 583.9 1174.28 585.7 1176.68 587.1C1179.08 588.5 1182.08 589.2 1185.68 589.2C1189.68 589.2 1193.18 588.3 1196.18 586.5C1199.38 584.7 1201.98 582.5 1203.98 579.9C1206.18 577.1 1207.78 574.1 1208.78 570.9C1209.98 567.5 1210.58 564.2 1210.58 561C1210.58 556.6 1209.48 552.9 1207.28 549.9C1205.28 546.9 1202.48 544.4 1198.88 542.4C1195.28 540.2 1191.08 538.4 1186.28 537C1181.68 535.4 1176.88 533.8 1171.88 532.2C1167.08 530.8 1161.98 529.1 1156.58 527.1C1151.38 525.1 1146.58 522.3 1142.18 518.7C1137.78 515.1 1134.08 510.6 1131.08 505.2C1128.28 499.6 1126.88 492.5 1126.88 483.9C1126.88 471.1 1130.08 460.4 1136.48 451.8C1143.08 443 1151.28 435.9 1161.08 430.5C1171.08 425.1 1181.98 421.3 1193.78 419.1C1205.58 416.7 1216.78 415.5 1227.38 415.5C1241.38 415.5 1253.38 417.2 1263.38 420.6C1273.58 423.8 1281.28 427.6 1286.48 432L1275.38 473.7H1225.58Z" fill="url(#paint0_linear_67_5160)"/>
</g>
<g style="mix-blend-mode:color-dodge">
<path d="M1313.04 418.721H1374.24L1362.8 557.425H1320.2L1313.04 418.721ZM1314.49 597.475C1313.68 593.352 1313.88 589.72 1315.07 586.579C1316.22 583.241 1317.99 580.493 1320.37 578.333C1322.95 576.174 1325.94 574.603 1329.35 573.621C1332.92 572.444 1336.71 571.855 1340.71 571.855C1348.11 571.855 1354.65 573.621 1360.34 577.155C1366.22 580.689 1369.87 586.088 1371.28 593.352C1372.09 597.475 1371.91 601.205 1370.76 604.543C1369.77 607.684 1367.99 610.334 1365.41 612.494C1363.03 614.654 1360.03 616.224 1356.42 617.206C1353.05 618.384 1349.26 618.973 1345.06 618.973C1337.66 618.973 1331.02 617.206 1325.13 613.672C1319.45 610.138 1315.9 604.739 1314.49 597.475Z" fill="url(#paint1_linear_67_5160)"/>
</g>
<g style="mix-blend-mode:color-dodge">
<path d="M346.539 198.23C360.873 198.23 372.806 200.029 382.339 203.629C392.039 207.228 400.203 212.79 406.833 220.316C411.152 225.388 414.848 231.114 417.922 237.495C420.995 243.875 423.343 251.238 424.965 259.581C426.364 266.78 427.097 273.979 427.163 281.177C427.229 288.376 426.664 295.329 425.468 302.037C424.406 308.581 422.698 314.798 420.343 320.688C418.123 326.414 415.358 331.486 412.05 335.903C405.839 344.247 397.9 350.136 388.235 353.572C378.704 356.844 366.439 358.48 351.439 358.48C336.939 358.48 324.986 357.008 315.58 354.063C306.175 351.118 298.252 346.374 291.814 339.829C287.257 335.248 283.211 329.44 279.677 322.405C276.309 315.37 273.592 306.536 271.525 295.902C267.995 277.741 268.097 261.545 271.83 247.311C275.698 232.914 282.904 221.543 293.449 213.199C299.797 208.128 307.232 204.365 315.755 201.911C324.278 199.457 334.539 198.23 346.539 198.23ZM346.1 341.302C349.933 341.302 353.199 339.666 355.896 336.394C358.728 332.958 361.02 328.459 362.772 322.896C364.659 317.17 366.07 310.708 367.004 303.509C368.104 296.311 368.741 288.867 368.913 281.177C369.085 273.488 368.856 265.88 368.227 258.354C367.732 250.665 366.88 243.712 365.672 237.495C364.018 228.987 361.973 223.179 359.535 220.071C357.232 216.799 354.414 215.163 351.081 215.163C347.248 215.163 343.899 216.799 341.035 220.071C338.171 223.343 335.696 227.76 333.611 233.323C331.66 238.722 330.135 245.021 329.034 252.219C328.068 259.254 327.4 266.535 327.029 274.06C326.826 281.586 326.939 289.03 327.37 296.392C327.968 303.755 328.871 310.544 330.08 316.761C331.892 326.087 334.148 332.549 336.848 336.148C339.683 339.584 342.767 341.302 346.1 341.302ZM501.622 300.81C501.488 304.409 501.425 307.517 501.434 310.135C501.443 312.753 501.67 315.207 502.115 317.497C503.228 323.224 506.119 327.804 510.787 331.24C515.621 334.676 522.038 336.394 530.038 336.394C535.872 336.394 540.431 335.412 543.716 333.449C547.168 331.486 549.742 328.868 551.439 325.596C553.303 322.324 554.489 318.561 554.995 314.307C555.668 310.053 556.044 305.554 556.122 300.81L557.909 200.684H580.659L578.467 301.3C578.327 309.154 577.341 316.516 575.51 323.387C573.679 330.259 570.272 336.312 565.29 341.547C560.474 346.783 553.702 350.954 544.973 354.063C536.212 357.008 524.915 358.48 511.082 358.48C491.915 358.48 477.16 355.454 466.817 349.4C456.441 343.183 450.014 333.694 447.533 320.933C446.42 315.207 445.755 307.926 445.538 299.092C445.32 290.257 445.377 280.686 445.706 270.379L447.409 200.684H504.159L501.622 300.81ZM736.421 356.517H677.921L628.275 243.875L625.671 356.517H603.171L606.63 200.684H666.38L714.811 314.798L717.38 200.684H740.38L736.421 356.517ZM889.644 219.335H849.394L846.309 356.517H792.309L795.394 219.335H755.644L756.518 200.684H890.268L889.644 219.335ZM902.731 356.517L906.19 200.684H973.44C983.774 200.684 992.98 201.747 1001.06 203.874C1009.28 205.837 1016.34 209.191 1022.27 213.936C1028.36 218.68 1033.4 224.897 1037.39 232.587C1041.55 240.276 1044.71 249.683 1046.88 260.808C1049.2 272.752 1049.89 284.449 1048.95 295.902C1048.17 307.354 1045.08 317.579 1039.66 326.577C1034.24 335.576 1026.24 342.856 1015.66 348.419C1005.21 353.818 991.481 356.517 974.481 356.517H902.731ZM967.892 339.339C973.392 339.339 977.796 337.13 981.104 332.713C984.547 328.132 987.101 322.405 988.765 315.534C990.564 308.499 991.653 300.81 992.031 292.466C992.544 283.958 992.621 275.778 992.261 267.925C992.068 260.072 991.617 253.037 990.908 246.82C990.367 240.603 989.841 236.186 989.332 233.568C988.347 228.496 986.5 224.57 983.793 221.789C981.22 218.844 977.351 217.371 972.184 217.371H960.184L957.142 339.339H967.892ZM1140.24 198.23C1154.57 198.23 1166.51 200.029 1176.04 203.629C1185.74 207.228 1193.9 212.79 1200.53 220.316C1204.85 225.388 1208.55 231.114 1211.62 237.495C1214.7 243.875 1217.04 251.238 1218.67 259.581C1220.07 266.78 1220.8 273.979 1220.86 281.177C1220.93 288.376 1220.36 295.329 1219.17 302.037C1218.11 308.581 1216.4 314.798 1214.04 320.688C1211.82 326.414 1209.06 331.486 1205.75 335.903C1199.54 344.247 1191.6 350.136 1181.94 353.572C1172.41 356.844 1160.14 358.48 1145.14 358.48C1130.64 358.48 1118.69 357.008 1109.28 354.063C1099.88 351.118 1091.95 346.374 1085.51 339.829C1080.96 335.248 1076.91 329.44 1073.38 322.405C1070.01 315.37 1067.29 306.536 1065.23 295.902C1061.7 277.741 1061.8 261.545 1065.53 247.311C1069.4 232.914 1076.61 221.543 1087.15 213.199C1093.5 208.128 1100.93 204.365 1109.46 201.911C1117.98 199.457 1128.24 198.23 1140.24 198.23ZM1139.8 341.302C1143.63 341.302 1146.9 339.666 1149.6 336.394C1152.43 332.958 1154.72 328.459 1156.47 322.896C1158.36 317.17 1159.77 310.708 1160.7 303.509C1161.81 296.311 1162.44 288.867 1162.61 281.177C1162.79 273.488 1162.56 265.88 1161.93 258.354C1161.43 250.665 1160.58 243.712 1159.37 237.495C1157.72 228.987 1155.67 223.179 1153.24 220.071C1150.93 216.799 1148.12 215.163 1144.78 215.163C1140.95 215.163 1137.6 216.799 1134.74 220.071C1131.87 223.343 1129.4 227.76 1127.31 233.323C1125.36 238.722 1123.84 245.021 1122.74 252.219C1121.77 259.254 1121.1 266.535 1120.73 274.06C1120.53 281.586 1120.64 289.03 1121.07 296.392C1121.67 303.755 1122.57 310.544 1123.78 316.761C1125.59 326.087 1127.85 332.549 1130.55 336.148C1133.38 339.584 1136.47 341.302 1139.8 341.302ZM1223.24 200.684H1284.24L1309.14 306.945L1330.24 200.684H1379.74L1406.89 306.945L1428.24 200.684H1454.49L1423.03 356.517H1366.78L1344.4 268.416L1324.03 356.517H1264.03L1223.24 200.684Z" fill="url(#paint2_linear_67_5160)"/>
</g>
<g style="mix-blend-mode:color-dodge">
<path d="M251.605 370.878C246.458 373.548 241.083 376.218 235.482 378.888C230.065 381.335 224.151 383.56 217.74 385.563C211.286 387.343 204.087 388.789 196.143 389.901C188.426 391.014 179.808 391.57 170.288 391.57C139.914 391.57 115.157 384.895 96.0151 371.545C77.1001 358.195 64.6151 335.945 58.5601 304.794C55.0568 286.772 54.6031 269.862 57.1991 254.064C59.7517 238.044 65.4353 224.137 74.2497 212.345C83.0208 200.33 94.8961 190.873 109.875 183.976C124.855 177.078 142.884 173.629 163.964 173.629C173.938 173.629 183.134 174.297 191.553 175.632C200.2 176.967 208.026 178.747 215.031 180.972C222.221 182.974 228.66 185.199 234.349 187.647C240.265 190.095 245.592 192.431 250.331 194.656L250.158 256.734H188.958C188.752 254.509 188.417 251.616 187.951 248.056C187.713 244.496 187.361 240.936 186.895 237.376C186.387 233.594 185.9 229.922 185.434 226.362C184.969 222.802 184.499 219.799 184.023 217.351C183.677 215.571 183.174 213.569 182.515 211.343C181.813 208.896 180.792 206.56 179.453 204.335C178.114 202.11 176.294 200.33 173.995 198.995C171.879 197.437 169.234 196.658 166.061 196.658C160.167 196.658 155.203 199.106 151.168 204.001C147.316 208.673 144.242 215.015 141.946 223.025C139.606 230.812 137.936 239.713 136.936 249.725C135.935 259.738 135.431 269.973 135.424 280.43C135.6 290.666 136.095 300.789 136.908 310.802C137.947 320.815 139.202 329.603 140.673 337.168C141.105 339.393 141.759 342.175 142.635 345.512C143.51 348.85 144.817 352.076 146.556 355.191C148.295 358.306 150.514 360.976 153.213 363.201C156.139 365.426 159.642 366.539 163.722 366.539C170.749 366.539 176.727 362.311 181.657 353.856C186.543 345.179 189.339 329.826 190.044 307.798H252.944L251.605 370.878Z" fill="url(#paint3_linear_67_5160)"/>
</g>
<g style="mix-blend-mode:color-dodge">
<path d="M1650.57 387.9H1571.01L1503.49 234.707L1499.95 387.9H1469.35L1474.05 175.967H1555.31L1621.18 331.162L1624.67 175.967H1655.95L1650.57 387.9Z" fill="url(#paint4_linear_67_5160)"/>
</g>
<g style="mix-blend-mode:color-dodge">
<path d="M809.209 61.0081H785.059L783.208 143.318H750.808L752.659 61.0081H728.809L729.334 49.8176H809.584L809.209 61.0081ZM900.311 143.318H867.911L868.811 101.647H850.361L849.461 143.318H817.061L819.137 49.8176H851.687L850.736 90.4569H869.036L869.987 49.8176H902.687L900.311 143.318ZM919.039 49.8176H982.189L981.964 61.0081H951.364L950.588 89.4262H976.238L975.985 100.47H950.335L949.56 131.98H980.16L980.114 143.318H916.964L919.039 49.8176Z" fill="url(#paint5_linear_67_5160)"/>
</g>
<defs>
<linearGradient id="paint0_linear_67_5160" x1="129.496" y1="416.392" x2="1454.54" y2="413.626" gradientUnits="userSpaceOnUse">
<stop stop-color="white"/>
<stop offset="0.185" stop-color="#FCFCFC"/>
<stop offset="0.35" stop-color="#E2E2E2"/>
<stop offset="0.515" stop-color="#FDFDFD"/>
<stop offset="0.845" stop-color="#E9E9E9"/>
<stop offset="1" stop-color="#E0E0E0"/>
</linearGradient>
<linearGradient id="paint1_linear_67_5160" x1="1260.78" y1="427.547" x2="1375.1" y2="405.305" gradientUnits="userSpaceOnUse">
<stop stop-color="white"/>
<stop offset="0.185" stop-color="#FCFCFC"/>
<stop offset="0.35" stop-color="#E2E2E2"/>
<stop offset="0.515" stop-color="#FDFDFD"/>
<stop offset="0.845" stop-color="#E9E9E9"/>
<stop offset="1" stop-color="#E0E0E0"/>
</linearGradient>
<linearGradient id="paint2_linear_67_5160" x1="258.052" y1="271.606" x2="1410.51" y2="47.5915" gradientUnits="userSpaceOnUse">
<stop stop-color="white"/>
<stop offset="0.235" stop-color="#E2E2E2"/>
<stop offset="0.471" stop-color="#FBFBFB"/>
<stop offset="0.71" stop-color="#F3F3F3"/>
<stop offset="0.81" stop-color="#E3E3E3"/>
<stop offset="0.9999" stop-color="#E0E0E0"/>
<stop offset="1" stop-color="#CFCFCF"/>
</linearGradient>
<linearGradient id="paint3_linear_67_5160" x1="40.8331" y1="273.068" x2="250.896" y2="232.236" gradientUnits="userSpaceOnUse">
<stop stop-color="white"/>
<stop offset="0.235" stop-color="#E2E2E2"/>
<stop offset="0.471" stop-color="#FBFBFB"/>
<stop offset="0.71" stop-color="#F3F3F3"/>
<stop offset="0.81" stop-color="#E3E3E3"/>
<stop offset="0.9999" stop-color="#E0E0E0"/>
<stop offset="1" stop-color="#CFCFCF"/>
</linearGradient>
<linearGradient id="paint4_linear_67_5160" x1="1446.83" y1="272.068" x2="1657.86" y2="231.049" gradientUnits="userSpaceOnUse">
<stop stop-color="white"/>
<stop offset="0.235" stop-color="#E2E2E2"/>
<stop offset="0.471" stop-color="#FBFBFB"/>
<stop offset="0.71" stop-color="#F3F3F3"/>
<stop offset="0.81" stop-color="#E3E3E3"/>
<stop offset="0.9999" stop-color="#E0E0E0"/>
<stop offset="1" stop-color="#CFCFCF"/>
</linearGradient>
<linearGradient id="paint5_linear_67_5160" x1="831.5" y1="5.25037e-06" x2="1061.17" y2="230.643" gradientUnits="userSpaceOnUse">
<stop stop-color="white"/>
<stop offset="1" stop-color="#E1E1E1"/>
</linearGradient>
</defs>
</svg>
