<svg width="943" height="305" viewBox="0 0 943 305" fill="none" xmlns="http://www.w3.org/2000/svg">
<g style="mix-blend-mode:color-dodge">
<path d="M177.447 162.336H139.707L141.334 90.2452L115.057 162.336H91.9373L69.7877 87.7421L67.9673 162.336H52.6673L55.0195 56.3693H98.3695L115.252 116.111L136.279 56.3693H179.969L177.447 162.336Z" fill="url(#paint0_linear_75_6243)"/>
</g>
<g style="mix-blend-mode:color-dodge">
<path d="M226.258 163.318H193.858L195.934 69.8176H228.484L226.258 163.318ZM322.734 163.318H287.634L257.847 95.7325L256.284 163.318H242.784L244.859 69.8176H280.709L309.768 138.286L311.309 69.8176H325.109L322.734 163.318ZM371.717 163.318H339.317L341.393 69.8176H373.943L371.717 163.318ZM461.904 120.617H500.754L500.354 163.318H482.654L477.972 153.894H477.372C475.344 156.839 472.731 159.342 469.532 161.403C466.432 163.465 462.033 164.496 456.333 164.496C451.933 164.496 447.549 163.808 443.182 162.434C438.896 160.962 434.857 158.704 431.066 155.661C427.355 152.52 424.063 148.446 421.19 143.44C418.317 138.433 416.193 132.396 414.82 125.329C413.331 117.672 413.119 110.408 414.184 103.536C415.248 96.6651 417.674 90.6281 421.463 85.4254C425.233 80.1247 430.422 75.9527 437.03 72.9097C443.639 69.8667 451.743 68.3451 461.343 68.3451C468.743 68.3451 475.355 69.1795 481.18 70.8483C487.004 72.5171 492.567 74.3821 497.867 76.4436L497.72 105.009H472.37C472.26 103.929 472.162 102.653 472.076 101.181C471.989 99.7081 471.844 98.1866 471.638 96.616C471.414 94.9472 471.199 93.3275 470.994 91.7569C470.789 90.1863 470.571 88.8121 470.342 87.6341C470.19 86.8488 469.968 85.9653 469.677 84.9837C469.367 83.9039 468.917 82.8732 468.326 81.8916C467.735 80.91 466.983 80.1247 466.068 79.5357C465.135 78.8485 463.918 78.505 462.418 78.505C459.818 78.505 457.628 79.5848 455.848 81.7443C454.148 83.8058 452.792 86.6034 451.779 90.1373C450.747 93.573 450.01 97.4995 449.569 101.917C449.227 106.334 449.055 110.85 449.052 115.463C449.13 119.979 449.348 124.445 449.706 128.862C450.146 133.182 450.681 136.961 451.31 140.2C451.501 141.182 451.79 142.409 452.176 143.881C452.562 145.354 453.148 146.826 453.934 148.299C454.802 149.673 455.84 150.9 457.05 151.98C458.341 152.961 459.986 153.452 461.986 153.452C465.286 153.452 468.143 151.685 470.556 148.151C472.969 144.618 474.174 138.728 474.171 130.482H461.571L461.904 120.617ZM596.294 163.318H561.194L554.543 139.906H526.793L520.694 163.318H506.144L532.219 69.8176H567.769L596.294 163.318ZM529.654 129.157H551.404L540.169 89.1066L529.654 129.157ZM713.528 163.318H680.228L681.664 99.7081L658.478 163.318H638.078L618.535 97.4995L616.928 163.318H603.428L605.504 69.8176H643.754L658.65 122.531L677.204 69.8176H715.754L713.528 163.318ZM732.066 69.8176H795.216L794.992 81.0081H764.392L763.616 109.426H789.266L789.012 120.47H763.362L762.587 151.98H793.187L793.141 163.318H729.991L732.066 69.8176Z" fill="url(#paint1_linear_75_6243)"/>
</g>
<g style="mix-blend-mode:color-dodge">
<path d="M859.844 91.0011C859.859 89.3323 859.586 87.0517 859.024 84.1591C858.699 82.4904 858.273 80.8772 857.743 79.3197C857.192 77.651 856.514 76.2047 855.71 74.9809C854.884 73.6459 853.839 72.6447 852.576 71.9772C851.291 71.1984 849.742 70.809 847.929 70.809C845.889 70.809 844.105 71.254 842.578 72.144C841.051 73.034 839.748 74.2022 838.669 75.6484C837.682 76.9835 836.976 78.5966 836.55 80.4879C836.216 82.2679 836.244 84.1591 836.633 86.1617C837.195 89.0542 838.364 91.2792 840.141 92.8367C842.03 94.3942 844.319 95.6736 847.007 96.6749C849.695 97.6762 852.69 98.5105 855.993 99.178C859.296 99.8456 862.734 100.624 866.307 101.514C869.292 102.293 872.32 103.294 875.391 104.518C878.462 105.742 881.28 107.411 883.844 109.524C886.5 111.527 888.833 114.197 890.841 117.534C892.828 120.761 894.298 124.821 895.249 129.716C896.612 136.725 896.341 142.622 894.438 147.405C892.534 152.189 889.381 156.083 884.978 159.087C880.575 162.091 875.047 164.26 868.393 165.595C861.853 166.93 854.559 167.597 846.513 167.597C838.353 167.597 831.569 167.097 826.161 166.096C820.844 164.983 816.594 163.815 813.409 162.591C809.615 161.145 806.684 159.476 804.616 157.585L805.952 134.723H835.872C835.954 135.724 836.111 137.115 836.343 138.895C836.554 140.563 836.757 141.898 836.952 142.9C837.211 144.235 837.652 145.625 838.273 147.072C838.894 148.518 839.663 149.853 840.581 151.077C841.612 152.3 842.884 153.302 844.395 154.08C845.906 154.859 847.682 155.249 849.722 155.249C851.989 155.249 853.875 154.748 855.38 153.747C856.999 152.745 858.234 151.522 859.087 150.075C860.031 148.518 860.613 146.849 860.833 145.069C861.146 143.178 861.129 141.342 860.783 139.562C860.307 137.115 859.284 135.057 857.713 133.388C856.255 131.719 854.398 130.328 852.142 129.216C849.864 127.992 847.289 126.991 844.418 126.212C841.638 125.322 838.745 124.432 835.739 123.542C832.868 122.763 829.794 121.818 826.518 120.705C823.355 119.593 820.332 118.035 817.449 116.033C814.567 114.03 811.984 111.527 809.7 108.523C807.507 105.408 805.946 101.459 805.017 96.6749C803.633 89.5548 804.289 83.6029 806.986 78.8191C809.774 73.924 813.653 69.9746 818.623 66.9709C823.706 63.9671 829.471 61.8533 835.92 60.6295C842.347 59.2945 848.564 58.627 854.571 58.627C862.504 58.627 869.488 59.5727 875.522 61.4639C881.648 63.2439 886.422 65.3577 889.845 67.8052L888.064 91.0011H859.844Z" fill="url(#paint2_linear_75_6243)"/>
</g>
<g style="mix-blend-mode:color-dodge">
<path d="M255.434 263H233.51L243.338 216.56H265.478L255.434 263ZM268.286 202.412C268.286 204.068 267.926 205.508 267.206 206.732C266.558 207.956 265.658 209 264.506 209.864C263.426 210.728 262.166 211.376 260.726 211.808C259.286 212.24 257.81 212.456 256.298 212.456C253.418 212.456 251.006 211.772 249.062 210.404C247.118 209.036 246.146 206.876 246.146 203.924C246.146 202.34 246.47 200.936 247.118 199.712C247.766 198.416 248.63 197.372 249.71 196.58C250.862 195.716 252.158 195.068 253.598 194.636C255.11 194.204 256.658 193.988 258.242 193.988C261.05 193.988 263.426 194.672 265.37 196.04C267.314 197.408 268.286 199.532 268.286 202.412ZM295.174 223.472C296.686 222.032 298.378 220.7 300.25 219.476C301.906 218.468 303.85 217.532 306.082 216.668C308.314 215.804 310.798 215.372 313.534 215.372C317.278 215.372 320.374 216.344 322.822 218.288C325.27 220.16 326.494 222.752 326.494 226.064C326.494 227 326.386 228.152 326.17 229.52C325.954 230.816 325.702 232.184 325.414 233.624C325.126 235.064 324.802 236.54 324.442 238.052C324.154 239.492 323.902 240.788 323.686 241.94L319.15 263H297.226L303.166 234.812C303.31 233.876 303.49 232.94 303.706 232.004C303.922 230.996 304.03 230.096 304.03 229.304C304.03 228.224 303.742 227.36 303.166 226.712C302.662 225.992 301.87 225.632 300.79 225.632C299.494 225.632 298.234 226.1 297.01 227.036C295.858 227.972 294.958 228.764 294.31 229.412L287.182 263H265.15L274.978 216.56H292.582L294.526 223.472H295.174ZM364.764 194.42H410.232L408.504 202.628H386.364L382.152 222.392H400.62L398.892 230.708H380.424L373.512 263H350.184L364.764 194.42ZM408.374 220.556C412.046 218.756 415.79 217.46 419.606 216.668C423.494 215.804 427.814 215.372 432.566 215.372C437.174 215.372 440.99 215.732 444.014 216.452C447.038 217.172 449.45 218.216 451.25 219.584C453.05 220.952 454.31 222.572 455.03 224.444C455.75 226.316 456.11 228.44 456.11 230.816C456.11 232.184 456.002 233.66 455.786 235.244C455.642 236.828 455.462 238.16 455.246 239.24L450.17 263H432.782L430.838 256.088H430.19C427.886 258.608 425.186 260.552 422.09 261.92C419.066 263.216 416.042 263.864 413.018 263.864C411.29 263.864 409.598 263.612 407.942 263.108C406.286 262.604 404.81 261.848 403.514 260.84C402.218 259.76 401.174 258.428 400.382 256.844C399.59 255.188 399.194 253.208 399.194 250.904C399.194 247.16 400.202 244.208 402.218 242.048C404.306 239.816 407.006 238.16 410.318 237.08C413.702 235.928 417.482 235.208 421.658 234.92C425.906 234.632 430.154 234.488 434.402 234.488C434.546 233.768 434.726 232.76 434.942 231.464C435.158 230.096 435.266 228.908 435.266 227.9C435.266 226.604 434.906 225.416 434.186 224.336C433.538 223.184 432.134 222.608 429.974 222.608C427.454 222.608 425.582 223.364 424.358 224.876C423.206 226.316 422.45 228.08 422.09 230.168H406.322L408.374 220.556ZM433.214 239.564H431.27C429.182 239.564 427.382 239.852 425.87 240.428C424.43 240.932 423.242 241.616 422.306 242.48C421.442 243.344 420.794 244.316 420.362 245.396C419.93 246.476 419.714 247.556 419.714 248.636C419.714 250.364 420.146 251.66 421.01 252.524C421.946 253.388 423.026 253.82 424.25 253.82C425.762 253.82 427.238 253.28 428.678 252.2C430.19 251.12 431.126 249.68 431.486 247.88L433.214 239.564ZM508.14 260.408C505.116 261.632 501.912 262.496 498.528 263C495.216 263.576 491.436 263.864 487.188 263.864C483.444 263.864 479.988 263.504 476.82 262.784C473.724 261.992 471.024 260.768 468.72 259.112C466.416 257.456 464.616 255.332 463.32 252.74C462.024 250.076 461.376 246.872 461.376 243.128C461.376 239.24 462.024 235.64 463.32 232.328C464.688 228.944 466.704 225.992 469.368 223.472C472.104 220.952 475.56 218.972 479.736 217.532C483.912 216.092 488.88 215.372 494.64 215.372C499.32 215.372 503.388 215.768 506.844 216.56C510.3 217.28 513.144 218.972 515.376 221.636L512.352 235.46H497.664C497.736 234.236 497.808 233.156 497.88 232.22C497.952 231.284 497.988 230.24 497.988 229.088C497.988 226.784 497.736 225.164 497.232 224.228C496.728 223.22 495.9 222.716 494.748 222.716C492.732 222.716 490.968 223.724 489.456 225.74C487.944 227.684 486.684 230.06 485.676 232.868C484.74 235.604 484.02 238.52 483.516 241.616C483.084 244.64 482.868 247.232 482.868 249.392C482.868 250.184 482.904 251.012 482.976 251.876C483.048 252.668 483.192 253.424 483.408 254.144C483.696 254.864 484.056 255.44 484.488 255.872C484.92 256.304 485.532 256.52 486.324 256.52C487.044 256.52 487.872 256.304 488.808 255.872C489.744 255.44 490.644 254.792 491.508 253.928C492.372 252.992 493.2 251.804 493.992 250.364C494.784 248.924 495.396 247.196 495.828 245.18H511.272L508.14 260.408ZM556.792 216.56H578.824L568.888 263H551.392L549.448 256.088H548.8C546.928 258.32 544.372 260.192 541.132 261.704C537.964 263.144 534.76 263.864 531.52 263.864C527.2 263.864 523.816 262.784 521.368 260.624C518.92 258.392 517.696 255.512 517.696 251.984C517.696 250.184 517.984 247.952 518.56 245.288C519.208 242.552 519.784 239.996 520.288 237.62L524.824 216.56H546.748L541.348 241.832C541.204 242.408 541.06 243.092 540.916 243.884C540.772 244.676 540.628 245.468 540.484 246.26C540.34 246.98 540.196 247.7 540.052 248.42C539.98 249.068 539.944 249.608 539.944 250.04C539.944 251.12 540.16 252.056 540.592 252.848C541.096 253.568 541.96 253.928 543.184 253.928C544.48 253.928 545.704 253.496 546.856 252.632C548.008 251.768 548.908 250.94 549.556 250.148L556.792 216.56ZM600.636 263H578.604L593.94 190.424H616.08L600.636 263ZM616.292 216.56C618.956 215.984 621.296 215.336 623.312 214.616C625.328 213.896 627.164 212.996 628.82 211.916C630.548 210.836 632.168 209.504 633.68 207.92C635.264 206.336 636.956 204.392 638.756 202.088H649.88L646.748 216.56H655.172L653.768 223.796H645.236L640.808 244.856C640.448 246.512 640.16 247.988 639.944 249.284C639.728 250.58 639.62 251.588 639.62 252.308C639.62 253.748 640.124 254.648 641.132 255.008C642.212 255.368 644.192 255.548 647.072 255.548L645.452 263C644.948 263.144 644.156 263.252 643.076 263.324C642.068 263.396 640.916 263.468 639.62 263.54C638.396 263.684 637.1 263.756 635.732 263.756C634.436 263.828 633.284 263.864 632.276 263.864C630.476 263.864 628.712 263.72 626.984 263.432C625.256 263.216 623.708 262.748 622.34 262.028C620.972 261.236 619.856 260.12 618.992 258.68C618.2 257.24 617.804 255.296 617.804 252.848C617.804 251.984 617.84 250.904 617.912 249.608C618.056 248.312 618.308 246.872 618.668 245.288L623.204 223.796H614.78L616.292 216.56ZM680.725 216.56L683.965 248.312L701.029 216.56H712.477L686.449 263C683.857 267.536 681.229 271.028 678.565 273.476C675.901 275.924 672.985 277.724 669.817 278.876C666.721 280.028 663.265 280.676 659.449 280.82C655.705 281.036 651.421 281.144 646.597 281.144L648.217 273.692C650.593 273.692 652.789 273.656 654.805 273.584C656.893 273.512 658.549 273.296 659.773 272.936C661.429 272.504 662.617 271.712 663.337 270.56C664.057 269.48 664.417 267.86 664.417 265.7C664.417 264.26 664.273 262.604 663.985 260.732C663.769 258.86 663.517 256.88 663.229 254.792L657.937 216.56H680.725Z" fill="white"/>
</g>
<defs>
<linearGradient id="paint0_linear_75_6243" x1="41.5223" y1="105" x2="306.672" y2="53.903" gradientUnits="userSpaceOnUse">
<stop stop-color="white"/>
<stop offset="0.335229" stop-color="#E0E0E0"/>
<stop offset="1" stop-color="#CFCFCF"/>
</linearGradient>
<linearGradient id="paint1_linear_75_6243" x1="184.031" y1="112.764" x2="1321.19" y2="-100.827" gradientUnits="userSpaceOnUse">
<stop stop-color="white"/>
<stop offset="0.335229" stop-color="#E0E0E0"/>
<stop offset="1" stop-color="#CFCFCF"/>
</linearGradient>
<linearGradient id="paint2_linear_75_6243" x1="796.265" y1="108.5" x2="973.416" y2="74.2552" gradientUnits="userSpaceOnUse">
<stop stop-color="white"/>
<stop offset="0.335229" stop-color="#E0E0E0"/>
<stop offset="1" stop-color="#CFCFCF"/>
</linearGradient>
</defs>
</svg>
